<svg width="511.875" height="54.688" viewBox="0 0 511.875 54.688" xmlns="http://www.w3.org/2000/svg"><g id="svgGroup" stroke-linecap="round" fill-rule="nonzero" font-size="9pt" stroke="#ffffff" stroke-width="0.5" fill="#ffffff" style="stroke:#ffffff;stroke-width:0.5;fill:#ffffff"><path d="M 386.925 53.775 L 379.125 53.775 L 379.125 16.575 L 385.5 16.575 L 386.325 20.25 Q 387.525 18.3 389.512 16.95 Q 391.5 15.6 394.275 15.6 Q 397.125 15.6 398.962 16.763 Q 400.8 17.925 401.7 20.1 Q 402.825 18.225 404.962 16.913 Q 407.1 15.6 410.025 15.6 Q 414.525 15.6 416.625 18.375 Q 418.725 21.15 418.725 25.575 L 418.725 53.775 L 410.925 53.775 L 410.925 28.425 Q 410.925 25.725 410.062 24.3 Q 409.2 22.875 407.25 22.875 Q 405.225 22.875 404.025 24.6 A 8.913 8.913 0 0 0 402.828 29.523 A 19.976 19.976 0 0 0 402.825 29.85 L 402.825 53.775 L 395.025 53.775 L 395.025 28.35 Q 395.025 25.725 394.162 24.3 Q 393.3 22.875 391.425 22.875 Q 389.4 22.875 388.162 24.638 A 9.004 9.004 0 0 0 386.926 29.706 A 19.617 19.617 0 0 0 386.925 29.925 L 386.925 53.775 Z M 191.7 45.3 L 199.725 42.3 Q 200.55 44.925 203.25 46.35 Q 205.95 47.775 209.85 47.775 Q 213.3 47.775 215.625 46.575 Q 217.95 45.375 217.95 43.2 Q 217.95 41.4 216.337 40.388 A 13.889 13.889 0 0 0 212.046 38.885 A 34.62 34.62 0 0 0 211.125 38.7 L 204.675 37.5 Q 199.35 36.525 196.2 34.013 Q 193.05 31.5 193.05 27.075 Q 193.05 23.325 195.3 20.775 Q 197.55 18.225 201.263 16.913 Q 204.975 15.6 209.4 15.6 Q 214.8 15.6 219.225 17.55 Q 223.65 19.5 225.6 23.85 L 217.65 26.85 Q 216.75 24.675 214.575 23.55 Q 212.4 22.425 209.25 22.425 A 10.877 10.877 0 0 0 203.842 23.532 A 5.545 5.545 0 0 0 203.812 23.55 Q 201.9 24.675 201.9 26.55 Q 201.9 28.125 203.212 29.025 Q 204.525 29.925 207.3 30.45 L 214.05 31.725 A 29.383 29.383 0 0 1 221.194 33.833 A 12.849 12.849 0 0 1 223.725 35.363 Q 226.8 37.8 226.8 42.6 Q 226.8 46.5 224.513 49.238 Q 222.225 51.975 218.362 53.325 Q 214.5 54.675 209.7 54.675 Q 205.575 54.675 201.937 53.588 Q 198.3 52.5 195.675 50.438 Q 193.05 48.375 191.7 45.3 Z M 154.125 53.775 L 144.825 53.775 L 144.825 16.575 L 152.925 16.575 L 154.05 21.825 Q 154.95 20.475 156.6 19.013 Q 158.25 17.55 160.65 16.575 Q 163.05 15.6 166.125 15.6 Q 170.7 15.6 173.587 17.288 Q 176.475 18.975 177.787 22.163 Q 179.1 25.35 179.1 29.7 L 179.1 53.775 L 169.725 53.775 L 169.725 31.8 A 12.074 12.074 0 0 0 168.355 25.575 A 6.773 6.773 0 0 0 168.112 25.2 Q 166.5 22.875 162.75 22.875 Q 158.55 22.875 156.337 25.838 A 12.8 12.8 0 0 0 154.162 32.905 A 24.789 24.789 0 0 0 154.125 34.275 L 154.125 53.775 Z M 259.8 53.775 L 250.425 53.775 L 250.425 23.7 L 239.85 23.7 L 239.85 16.575 L 250.425 16.575 L 250.425 10.575 A 15.011 15.011 0 0 1 251.367 4.723 A 6.987 6.987 0 0 1 251.7 4.05 Q 252.975 1.8 255.787 0.9 A 23.376 23.376 0 0 1 262.407 0.005 A 43.053 43.053 0 0 1 263.1 0 L 276.6 0 L 276.6 7.425 L 264.45 7.425 A 8.185 8.185 0 0 0 261.01 7.942 A 1.86 1.86 0 0 0 260.7 8.138 A 3.761 3.761 0 0 0 259.804 11.023 A 12.725 12.725 0 0 0 259.8 11.325 L 259.8 16.575 L 269.475 16.575 L 269.475 23.7 L 259.8 23.7 L 259.8 53.775 Z M 121.575 30.375 L 121.575 29.475 Q 121.575 25.8 119.663 23.888 A 7.936 7.936 0 0 0 113.899 21.975 A 16.328 16.328 0 0 0 113.775 21.975 Q 110.775 21.975 108.712 23.438 Q 106.65 24.9 106.05 27.15 L 98.025 24.45 Q 99.75 20.475 103.95 18.038 Q 108.15 15.6 114.225 15.6 A 21.802 21.802 0 0 1 123.047 17.188 A 12.764 12.764 0 0 1 126.263 19.2 Q 130.425 22.8 130.425 30.3 L 130.425 39.675 Q 130.425 44.1 130.8 47.813 A 40.263 40.263 0 0 0 131.738 53.633 A 18.759 18.759 0 0 0 131.775 53.775 L 123.375 53.775 L 121.95 48.75 Q 120.15 51.6 116.888 53.138 Q 113.625 54.675 108.9 54.675 Q 103.2 54.675 99.525 51.863 Q 95.85 49.05 95.85 44.025 Q 95.85 37.275 102.413 34.2 Q 108.77 31.221 120.793 30.424 A 116.338 116.338 0 0 1 121.575 30.375 Z M 121.575 38.7 L 121.575 36.075 A 59.826 59.826 0 0 0 113.473 37.076 A 23.387 23.387 0 0 0 109.425 38.25 Q 105.375 39.9 105.375 43.275 Q 105.375 45.525 107.138 46.913 Q 108.9 48.3 111.9 48.3 Q 114.75 48.3 116.925 47.4 Q 119.1 46.5 120.337 44.363 Q 121.575 42.225 121.575 38.7 Z M 24.45 53.775 L 14.85 53.775 L 14.85 12.15 L 0 12.15 L 0 3.675 L 39.3 3.675 L 39.3 12.15 L 24.45 12.15 L 24.45 53.775 Z M 465.375 37.35 L 436.65 37.35 Q 436.95 40.125 437.925 42 Q 438.9 43.875 440.437 45.075 Q 441.975 46.275 443.775 46.8 Q 445.575 47.325 447.45 47.325 Q 450.375 47.325 452.362 46.388 Q 454.35 45.45 455.55 43.95 L 463.125 46.725 Q 460.725 50.325 456.712 52.5 Q 452.7 54.675 447.225 54.675 Q 441.3 54.675 436.837 52.238 Q 432.375 49.8 429.937 45.413 Q 427.5 41.025 427.5 35.1 Q 427.5 29.1 430.087 24.75 Q 432.675 20.4 437.1 18 Q 441.525 15.6 446.85 15.6 Q 451.425 15.6 454.987 17.25 Q 458.55 18.9 460.95 21.863 Q 463.35 24.825 464.512 28.763 A 23.591 23.591 0 0 1 465.437 35.472 A 29.164 29.164 0 0 1 465.375 37.35 Z M 436.65 31.5 L 456.6 31.5 Q 456.45 29.025 455.287 27.038 Q 454.125 25.05 452.062 23.85 Q 450 22.65 447.075 22.65 Q 444.675 22.65 442.462 23.513 Q 440.25 24.375 438.712 26.325 Q 437.175 28.275 436.65 31.5 Z M 62.4 53.775 L 53.1 53.775 L 53.1 16.575 L 60.375 16.575 L 62.1 24.3 Q 65.025 19.725 69.488 17.7 Q 73.95 15.675 78.825 15.675 Q 80.475 15.675 82.163 15.9 Q 83.85 16.125 85.275 16.425 L 85.275 25.725 Q 83.475 25.05 81.3 24.713 Q 79.125 24.375 77.025 24.375 Q 72.6 24.375 69.3 26.025 Q 66 27.675 64.2 30.975 Q 62.4 34.275 62.4 39.225 L 62.4 53.775 Z M 346.8 53.775 L 337.5 53.775 L 337.5 16.575 L 344.775 16.575 L 346.5 24.3 Q 349.425 19.725 353.887 17.7 Q 358.35 15.675 363.225 15.675 Q 364.875 15.675 366.562 15.9 Q 368.25 16.125 369.675 16.425 L 369.675 25.725 Q 367.875 25.05 365.7 24.713 Q 363.525 24.375 361.425 24.375 Q 357 24.375 353.7 26.025 Q 350.4 27.675 348.6 30.975 Q 346.8 34.275 346.8 39.225 L 346.8 53.775 Z M 489 53.775 L 479.7 53.775 L 479.7 16.575 L 486.975 16.575 L 488.7 24.3 Q 491.625 19.725 496.087 17.7 Q 500.55 15.675 505.425 15.675 Q 507.075 15.675 508.762 15.9 Q 510.45 16.125 511.875 16.425 L 511.875 25.725 Q 510.075 25.05 507.9 24.713 Q 505.725 24.375 503.625 24.375 Q 499.2 24.375 495.9 26.025 Q 492.6 27.675 490.8 30.975 Q 489 34.275 489 39.225 L 489 53.775 Z M 304.05 54.675 Q 300.375 54.675 296.925 53.513 Q 293.475 52.35 290.662 49.913 Q 287.85 47.475 286.237 43.8 Q 284.625 40.125 284.625 35.025 Q 284.625 30 286.237 26.325 Q 287.85 22.65 290.662 20.25 Q 293.475 17.85 296.925 16.725 Q 300.375 15.6 304.05 15.6 A 24.817 24.817 0 0 1 304.518 15.604 A 22.991 22.991 0 0 1 311.25 16.725 Q 314.7 17.85 317.475 20.25 Q 320.25 22.65 321.862 26.325 Q 323.475 30 323.475 35.025 Q 323.475 40.125 321.862 43.8 Q 320.25 47.475 317.475 49.913 Q 314.7 52.35 311.25 53.513 Q 307.8 54.675 304.05 54.675 Z M 304.05 47.325 Q 306.825 47.325 309.075 45.975 Q 311.325 44.625 312.638 41.888 Q 313.95 39.15 313.95 35.025 Q 313.95 30.9 312.6 28.2 Q 311.25 25.5 309 24.188 Q 306.75 22.875 304.05 22.875 Q 301.35 22.875 299.1 24.188 Q 296.85 25.5 295.5 28.2 Q 294.15 30.9 294.15 35.025 Q 294.15 39.15 295.463 41.888 Q 296.775 44.625 299.062 45.975 Q 301.35 47.325 304.05 47.325 Z"/></g></svg>